<svg width="32" height="32" viewBox="0 0 32 32" fill="none" xmlns="http://www.w3.org/2000/svg">
<rect x="32" y="32" width="32" height="32" rx="16" transform="rotate(-180 32 32)" fill="#D51F27"/>
<path d="M11.7095 16.2881C11.7095 16.1611 11.7339 16.0439 11.7827 15.9365C11.8315 15.8291 11.9048 15.7266 12.0024 15.6289L17.708 10.0479C17.8691 9.88184 18.0693 9.79883 18.3086 9.79883C18.4648 9.79883 18.6089 9.83789 18.7407 9.91602C18.8726 9.98926 18.9775 10.0918 19.0557 10.2236C19.1289 10.3506 19.1655 10.4922 19.1655 10.6484C19.1655 10.8828 19.0776 11.0903 18.9019 11.271L13.7603 16.2881L18.9019 21.3052C19.0776 21.4858 19.1655 21.6909 19.1655 21.9204C19.1655 22.0815 19.1289 22.2256 19.0557 22.3525C18.9775 22.4795 18.8726 22.5796 18.7407 22.6528C18.6089 22.731 18.4648 22.77 18.3086 22.77C18.0693 22.77 17.8691 22.6895 17.708 22.5283L12.0024 16.9473C11.9048 16.8496 11.8315 16.7471 11.7827 16.6396C11.7339 16.5322 11.7095 16.415 11.7095 16.2881Z" fill="#FFFAF5"/>
</svg>
