<svg width="52" height="52" viewBox="0 0 52 52" fill="none" xmlns="http://www.w3.org/2000/svg">
<rect y="52" width="52" height="52" rx="26" transform="rotate(-90 0 52)" fill="#D51F27"/>
<path d="M25.9492 19.7793C26.1185 19.7793 26.2747 19.8118 26.418 19.877C26.5612 19.9421 26.6979 20.0397 26.8281 20.1699L34.2695 27.7773C34.4909 27.9922 34.6016 28.2591 34.6016 28.5781C34.6016 28.7865 34.5495 28.9785 34.4453 29.1543C34.3477 29.3301 34.2109 29.4701 34.0352 29.5742C33.8659 29.6719 33.6771 29.7207 33.4688 29.7207C33.1563 29.7207 32.8796 29.6035 32.6387 29.3691L25.9492 22.5137L19.2598 29.3691C19.0189 29.6035 18.7454 29.7207 18.4395 29.7207C18.2246 29.7207 18.0326 29.6719 17.8633 29.5742C17.694 29.4701 17.5605 29.3301 17.4629 29.1543C17.3587 28.9785 17.3066 28.7865 17.3066 28.5781C17.3066 28.2591 17.4141 27.9922 17.6289 27.7773L25.0703 20.1699C25.2005 20.0397 25.3372 19.9421 25.4805 19.877C25.6237 19.8118 25.7799 19.7793 25.9492 19.7793Z" fill="#FFFAF5"/>
</svg>
