<svg width="52" height="52" viewBox="0 0 52 52" fill="none" xmlns="http://www.w3.org/2000/svg">
    <rect x="52" width="52" height="52" rx="26" transform="rotate(90 52 0)" fill="#D51F27" />
    <path
        d="M26.0508 32.2207C25.8815 32.2207 25.7253 32.1882 25.582 32.123C25.4388 32.0579 25.3021 31.9603 25.1719 31.8301L17.7305 24.2227C17.5091 24.0078 17.3984 23.7409 17.3984 23.4219C17.3984 23.2135 17.4505 23.0215 17.5547 22.8457C17.6523 22.6699 17.7891 22.5299 17.9648 22.4258C18.1341 22.3281 18.3229 22.2793 18.5312 22.2793C18.8437 22.2793 19.1204 22.3965 19.3613 22.6309L26.0508 29.4863L32.7402 22.6309C32.9811 22.3965 33.2546 22.2793 33.5605 22.2793C33.7754 22.2793 33.9674 22.3281 34.1367 22.4258C34.306 22.5299 34.4395 22.6699 34.5371 22.8457C34.6413 23.0215 34.6934 23.2135 34.6934 23.4219C34.6934 23.7409 34.5859 24.0078 34.3711 24.2227L26.9297 31.8301C26.7995 31.9603 26.6628 32.0579 26.5195 32.123C26.3763 32.1882 26.2201 32.2207 26.0508 32.2207Z"
        fill="#FFFAF5" />
</svg>