<svg width="40" height="40" viewBox="0 0 40 40" fill="none" xmlns="http://www.w3.org/2000/svg">
    <rect x="39.7481" y="0.25188" width="39.4962" height="39.4962" rx="19.7481"
        transform="rotate(90 39.7481 0.25188)" stroke="#FFFAF5" stroke-width="0.503759" />
    <path
        d="M20.2881 24.2905C20.1611 24.2905 20.0439 24.2661 19.9365 24.2173C19.8291 24.1685 19.7266 24.0952 19.6289 23.9976L14.0479 18.292C13.8818 18.1309 13.7988 17.9307 13.7988 17.6914C13.7988 17.5352 13.8379 17.3911 13.916 17.2593C13.9893 17.1274 14.0918 17.0225 14.2236 16.9443C14.3506 16.8711 14.4922 16.8345 14.6484 16.8345C14.8828 16.8345 15.0903 16.9224 15.271 17.0981L20.2881 22.2397L25.3052 17.0981C25.4858 16.9224 25.6909 16.8345 25.9204 16.8345C26.0815 16.8345 26.2256 16.8711 26.3525 16.9443C26.4795 17.0225 26.5796 17.1274 26.6528 17.2593C26.731 17.3911 26.77 17.5352 26.77 17.6914C26.77 17.9307 26.6895 18.1309 26.5283 18.292L20.9473 23.9976C20.8496 24.0952 20.7471 24.1685 20.6396 24.2173C20.5322 24.2661 20.415 24.2905 20.2881 24.2905Z"
        fill="#FFFAF5" />
</svg>