<svg width="8" height="13" viewBox="0 0 8 13" fill="none" xmlns="http://www.w3.org/2000/svg">
<path d="M7.60449 6.06445C7.60449 6.18294 7.58171 6.29232 7.53613 6.39258C7.49056 6.49284 7.4222 6.58854 7.33105 6.67969L2.00586 11.8887C1.85547 12.0436 1.66862 12.1211 1.44531 12.1211C1.29948 12.1211 1.16504 12.0846 1.04199 12.0117C0.918945 11.9434 0.820964 11.8477 0.748047 11.7246C0.679688 11.6061 0.645508 11.474 0.645508 11.3281C0.645508 11.1094 0.727539 10.9157 0.891602 10.7471L5.69043 6.06445L0.891602 1.38184C0.727539 1.21322 0.645508 1.02181 0.645508 0.807617C0.645508 0.657227 0.679688 0.522786 0.748047 0.404297C0.820964 0.285807 0.918945 0.192383 1.04199 0.124023C1.16504 0.0511068 1.29948 0.0146484 1.44531 0.0146484C1.66862 0.0146484 1.85547 0.0898438 2.00586 0.240234L7.33105 5.44922C7.4222 5.54036 7.49056 5.63607 7.53613 5.73633C7.58171 5.83659 7.60449 5.94596 7.60449 6.06445Z" fill="#FFFAF5"/>
</svg>
