<svg width="32" height="32" viewBox="0 0 32 32" fill="none" xmlns="http://www.w3.org/2000/svg">
<rect width="32" height="32" rx="16" fill="#D51F27"/>
<path d="M20.2905 15.7119C20.2905 15.8389 20.2661 15.9561 20.2173 16.0635C20.1685 16.1709 20.0952 16.2734 19.9976 16.3711L14.292 21.9521C14.1309 22.1182 13.9307 22.2012 13.6914 22.2012C13.5352 22.2012 13.3911 22.1621 13.2593 22.084C13.1274 22.0107 13.0225 21.9082 12.9443 21.7764C12.8711 21.6494 12.8345 21.5078 12.8345 21.3516C12.8345 21.1172 12.9224 20.9097 13.0981 20.729L18.2397 15.7119L13.0981 10.6948C12.9224 10.5142 12.8345 10.3091 12.8345 10.0796C12.8345 9.91846 12.8711 9.77441 12.9443 9.64746C13.0225 9.52051 13.1274 9.42041 13.2593 9.34717C13.3911 9.26904 13.5352 9.22998 13.6914 9.22998C13.9307 9.22998 14.1309 9.31055 14.292 9.47168L19.9976 15.0527C20.0952 15.1504 20.1685 15.2529 20.2173 15.3604C20.2661 15.4678 20.2905 15.585 20.2905 15.7119Z" fill="#FFFAF5"/>
</svg>
