<svg width="11" height="18" viewBox="0 0 11 18" fill="none" xmlns="http://www.w3.org/2000/svg">
<path d="M0.279298 9.05078C0.279298 8.88151 0.31185 8.72526 0.376954 8.58203C0.442058 8.4388 0.539715 8.30208 0.669923 8.17187L8.27735 0.730468C8.49219 0.509114 8.75912 0.398437 9.07813 0.398437C9.28646 0.398437 9.47852 0.45052 9.6543 0.554687C9.83008 0.652343 9.97005 0.789062 10.0742 0.964843C10.1719 1.13411 10.2207 1.32292 10.2207 1.53125C10.2207 1.84375 10.1035 2.12044 9.86914 2.36133L3.01367 9.05078L9.86914 15.7402C10.1035 15.9811 10.2207 16.2546 10.2207 16.5605C10.2207 16.7754 10.1719 16.9674 10.0742 17.1367C9.97005 17.306 9.83008 17.4395 9.6543 17.5371C9.47852 17.6413 9.28646 17.6934 9.07813 17.6934C8.75911 17.6934 8.49219 17.5859 8.27734 17.3711L0.669923 9.92969C0.539715 9.79948 0.442058 9.66276 0.376954 9.51953C0.31185 9.3763 0.279298 9.22005 0.279298 9.05078Z" fill="#282828"/>
</svg>
